<?xml version="1.0" encoding="UTF-8"?>
<!DOCTYPE svg PUBLIC "-//W3C//DTD SVG 1.1//EN" "http://www.w3.org/Graphics/SVG/1.1/DTD/svg11.dtd">
<svg xmlns="http://www.w3.org/2000/svg" version="1.1" width="400px" height="400px" style="shape-rendering:geometricPrecision; text-rendering:geometricPrecision; image-rendering:optimizeQuality; fill-rule:evenodd; clip-rule:evenodd" xmlns:xlink="http://www.w3.org/1999/xlink">
<g><path style="opacity:0.533" fill="#868686" d="M 182.5,159.5 C 166.5,159.5 150.5,159.5 134.5,159.5C 134.5,162.167 134.5,164.833 134.5,167.5C 147.344,167.171 160.011,167.505 172.5,168.5C 172.167,168.5 171.833,168.5 171.5,168.5C 158.833,168.5 146.167,168.5 133.5,168.5C 133.085,164.625 133.585,160.958 135,157.5C 150.667,158.833 166.333,158.833 182,157.5C 182.464,158.094 182.631,158.761 182.5,159.5 Z"/></g>
<g><path style="opacity:0.529" fill="#878787" d="M 352.5,237.5 C 352.672,238.492 352.338,239.158 351.5,239.5C 351.5,212.833 351.5,186.167 351.5,159.5C 334.833,159.5 318.167,159.5 301.5,159.5C 301.5,168.833 301.5,178.167 301.5,187.5C 304.167,187.5 306.833,187.5 309.5,187.5C 309.5,180.833 309.5,174.167 309.5,167.5C 320.346,167.172 331.013,167.506 341.5,168.5C 331.145,168.168 320.812,168.501 310.5,169.5C 310.255,175.242 310.588,181.076 311.5,187C 308.042,188.415 304.375,188.915 300.5,188.5C 300.819,178.584 300.486,168.75 299.5,159C 317.074,158.826 334.574,158.326 352,157.5C 352.692,158.025 353.192,158.692 353.5,159.5C 352.509,185.455 352.176,211.455 352.5,237.5 Z"/></g>
<g><path style="opacity:1" fill="#fdfdfd" d="M 59.5,239.5 C 58.1667,236.833 58.1667,234.167 59.5,231.5C 63.8333,231.5 68.1667,231.5 72.5,231.5C 72.5,210.167 72.5,188.833 72.5,167.5C 66.9738,167.179 61.6405,167.512 56.5,168.5C 55.5166,172.298 55.1832,176.298 55.5,180.5C 52.8333,180.5 50.1667,180.5 47.5,180.5C 47.5,173.5 47.5,166.5 47.5,159.5C 58.8333,159.5 70.1667,159.5 81.5,159.5C 81.5,183.5 81.5,207.5 81.5,231.5C 85.5,231.5 89.5,231.5 93.5,231.5C 93.5,234.167 93.5,236.833 93.5,239.5C 82.1667,239.5 70.8333,239.5 59.5,239.5 Z"/></g>
<g><path style="opacity:1" fill="#fafafa" d="M 182.5,159.5 C 182.81,175.593 182.81,191.926 182.5,208.5C 182.5,218.833 182.5,229.167 182.5,239.5C 166.5,239.5 150.5,239.5 134.5,239.5C 134.5,236.833 134.5,234.167 134.5,231.5C 147.344,231.829 160.011,231.495 172.5,230.5C 172.5,221.167 172.5,211.833 172.5,202.5C 160.833,202.5 149.167,202.5 137.5,202.5C 137.5,199.833 137.5,197.167 137.5,194.5C 149.167,194.5 160.833,194.5 172.5,194.5C 172.5,185.833 172.5,177.167 172.5,168.5C 160.011,167.505 147.344,167.171 134.5,167.5C 134.5,164.833 134.5,162.167 134.5,159.5C 150.5,159.5 166.5,159.5 182.5,159.5 Z"/></g>
<g><path style="opacity:0.999" fill="#f7f7f7" d="M 218.5,159.5 C 234.5,159.5 250.5,159.5 266.5,159.5C 266.5,186.167 266.5,212.833 266.5,239.5C 250.5,239.5 234.5,239.5 218.5,239.5C 218.5,236.5 218.5,233.5 218.5,230.5C 231.167,230.5 243.833,230.5 256.5,230.5C 256.5,221.5 256.5,212.5 256.5,203.5C 245.346,202.505 234.012,202.172 222.5,202.5C 222.5,199.833 222.5,197.167 222.5,194.5C 234.167,194.5 245.833,194.5 257.5,194.5C 257.826,185.651 257.493,176.984 256.5,168.5C 243.833,168.5 231.167,168.5 218.5,168.5C 218.5,165.5 218.5,162.5 218.5,159.5 Z"/></g>
<g><path style="opacity:1" fill="#fcfcfc" d="M 351.5,239.5 C 347.958,239.813 344.625,239.479 341.5,238.5C 341.5,215.167 341.5,191.833 341.5,168.5C 331.013,167.506 320.346,167.172 309.5,167.5C 309.5,174.167 309.5,180.833 309.5,187.5C 306.833,187.5 304.167,187.5 301.5,187.5C 301.5,178.167 301.5,168.833 301.5,159.5C 318.167,159.5 334.833,159.5 351.5,159.5C 351.5,186.167 351.5,212.833 351.5,239.5 Z"/></g>
<g><path style="opacity:0.777" fill="#b6b6b6" d="M 56.5,168.5 C 61.6405,167.512 66.9738,167.179 72.5,167.5C 72.5,188.833 72.5,210.167 72.5,231.5C 68.1667,231.5 63.8333,231.5 59.5,231.5C 59.5,231.167 59.5,230.833 59.5,230.5C 63.1903,230.383 67.1903,230.383 71.5,230.5C 71.6666,209.831 71.5,189.164 71,168.5C 66.3781,168.609 61.5448,168.609 56.5,168.5 Z"/></g>
<g><path style="opacity:0.41" fill="#767676" d="M 218.5,159.5 C 234.658,158.504 250.991,158.17 267.5,158.5C 267.5,185.833 267.5,213.167 267.5,240.5C 251.256,240.175 235.089,240.509 219,241.5C 217.62,240.744 217.453,240.078 218.5,239.5C 234.5,239.5 250.5,239.5 266.5,239.5C 266.5,212.833 266.5,186.167 266.5,159.5C 250.5,159.5 234.5,159.5 218.5,159.5 Z"/></g>
<g><path style="opacity:0.215" fill="#484848" d="M 56.5,168.5 C 56.5,172.833 56.5,177.167 56.5,181.5C 52.774,181.823 49.1073,181.489 45.5,180.5C 45.6236,179.893 45.9569,179.56 46.5,179.5C 46.5,180.167 46.8333,180.5 47.5,180.5C 50.1667,180.5 52.8333,180.5 55.5,180.5C 55.1832,176.298 55.5166,172.298 56.5,168.5 Z"/></g>
<g><path style="opacity:0.439" fill="#7b7b7b" d="M 59.5,239.5 C 70.8333,239.5 82.1667,239.5 93.5,239.5C 93.5,236.833 93.5,234.167 93.5,231.5C 89.5,231.5 85.5,231.5 81.5,231.5C 81.5,207.5 81.5,183.5 81.5,159.5C 70.1667,159.5 58.8333,159.5 47.5,159.5C 47.5,166.5 47.5,173.5 47.5,180.5C 46.8333,180.5 46.5,180.167 46.5,179.5C 46.6768,172.944 46.3435,166.278 45.5,159.5C 57.8153,158.501 70.1487,158.168 82.5,158.5C 82.5,182.5 82.5,206.5 82.5,230.5C 86.5,230.5 90.5,230.5 94.5,230.5C 94.5,233.833 94.5,237.167 94.5,240.5C 82.9191,240.179 71.4191,240.512 60,241.5C 58.6197,240.744 58.453,240.078 59.5,239.5 Z"/></g>
<g><path style="opacity:0.386" fill="#777777" d="M 256.5,168.5 C 257.493,176.984 257.826,185.651 257.5,194.5C 245.833,194.5 234.167,194.5 222.5,194.5C 222.5,197.167 222.5,199.833 222.5,202.5C 222.167,202.5 221.833,202.5 221.5,202.5C 221.5,199.5 221.5,196.5 221.5,193.5C 233.167,193.5 244.833,193.5 256.5,193.5C 256.5,185.167 256.5,176.833 256.5,168.5 Z"/></g>
<g><path style="opacity:0.208" fill="#333333" d="M 221.5,202.5 C 221.833,202.5 222.167,202.5 222.5,202.5C 234.012,202.172 245.346,202.505 256.5,203.5C 249.146,203.364 241.812,203.697 234.5,204.5C 229.964,204.229 225.631,203.562 221.5,202.5 Z"/></g>
<g><path style="opacity:0.4" fill="#585858" d="M 171.5,168.5 C 171.833,168.5 172.167,168.5 172.5,168.5C 172.5,177.167 172.5,185.833 172.5,194.5C 160.833,194.5 149.167,194.5 137.5,194.5C 137.5,197.167 137.5,199.833 137.5,202.5C 149.167,202.5 160.833,202.5 172.5,202.5C 172.5,211.833 172.5,221.167 172.5,230.5C 172.167,230.5 171.833,230.5 171.5,230.5C 171.394,221.564 171.394,212.731 171.5,204C 159.838,203.5 148.171,203.333 136.5,203.5C 136.322,200.121 136.322,196.955 136.5,194C 148.181,193.833 159.848,193.333 171.5,192.5C 171.456,184.501 171.456,176.501 171.5,168.5 Z"/></g>
<g><path style="opacity:0.007" fill="#000000" d="M 59.5,230.5 C 59.5,230.833 59.5,231.167 59.5,231.5C 57.6469,232.614 57.1469,231.948 58,229.5C 58.3826,230.056 58.8826,230.389 59.5,230.5 Z"/></g>
<g><path style="opacity:0.022" fill="#0f0f0f" d="M 352.5,237.5 C 353.797,238.849 353.63,240.182 352,241.5C 351.601,241.272 351.435,240.938 351.5,240.5C 351.5,240.167 351.5,239.833 351.5,239.5C 352.338,239.158 352.672,238.492 352.5,237.5 Z"/></g>
<g><path style="opacity:0.504" fill="#646464" d="M 182.5,208.5 C 183.166,213.656 183.499,218.989 183.5,224.5C 183.647,230.334 183.147,236.001 182,241.5C 165.911,240.509 149.744,240.175 133.5,240.5C 133.5,237.167 133.5,233.833 133.5,230.5C 146.167,230.5 158.833,230.5 171.5,230.5C 171.833,230.5 172.167,230.5 172.5,230.5C 160.011,231.495 147.344,231.829 134.5,231.5C 134.5,234.167 134.5,236.833 134.5,239.5C 150.5,239.5 166.5,239.5 182.5,239.5C 182.5,229.167 182.5,218.833 182.5,208.5 Z"/></g>
<g><path style="opacity:0.503" fill="#717171" d="M 341.5,238.5 C 344.625,239.479 347.958,239.813 351.5,239.5C 351.5,239.833 351.5,240.167 351.5,240.5C 348.223,240.216 345.057,240.549 342,241.5C 340.454,240.497 340.287,239.497 341.5,238.5 Z"/></g>
</svg>
