<?xml version="1.0" encoding="UTF-8"?>
<svg version="1.1" xmlns="http://www.w3.org/2000/svg" width="400" height="400">
<path d="M0 0 C1.84851563 -0.07347656 1.84851563 -0.07347656 3.734375 -0.1484375 C8.24740729 0.52350286 9.35505024 1.91159257 12.25 5.375 C13.49665833 8.51985168 13.49665833 8.51985168 14.37817383 12.09301758 C14.54471466 12.74723694 14.71125549 13.4014563 14.88284302 14.07550049 C15.42431697 16.21971722 15.94074901 18.36912343 16.45703125 20.51953125 C16.82949363 22.01492495 17.20351518 23.50993108 17.57902527 25.00456238 C18.55956161 28.9249741 19.51892045 32.85026834 20.47387695 36.77697754 C21.45350616 40.788744 22.45319157 44.79550147 23.45117188 48.80273438 C25.40371456 56.65540751 27.33390011 64.51335557 29.25 72.375 C31.89724006 64.92199337 33.76042541 57.3980747 35.53515625 49.6953125 C35.83941718 48.3924409 36.14423173 47.08969847 36.4495697 45.78707886 C37.73508536 40.29803234 39.00980232 34.80649066 40.2824707 29.31445312 C40.91373518 26.59173935 41.54825597 23.8698211 42.18614197 21.14865112 C42.78473619 18.59352546 43.37813535 16.03717606 43.96583557 13.47952271 C44.23629196 12.32757416 44.50674835 11.17562561 44.78540039 9.98876953 C45.13822838 8.46728806 45.13822838 8.46728806 45.4981842 6.91506958 C46.25 4.375 46.25 4.375 48.25 1.375 C51.55783265 0.27238912 54.20559269 0.13759221 57.6875 0.0625 C58.82058594 0.02511719 59.95367187 -0.01226562 61.12109375 -0.05078125 C65.02882302 0.48098216 65.81905586 1.31967478 68.25 4.375 C69.11194176 6.8613845 69.76547814 9.14827929 70.328125 11.69921875 C70.50325623 12.43654739 70.67838745 13.17387604 70.85882568 13.93354797 C71.41945079 16.30692609 71.96028166 18.68429016 72.5 21.0625 C72.84630392 22.54784198 73.19395242 24.03287115 73.54296875 25.51757812 C74.09968846 27.8887254 74.65474402 30.26018941 75.20422363 32.63302612 C77.25704942 41.48503659 79.40216324 50.31443902 81.546875 59.14453125 C81.73018623 59.89933966 81.91349747 60.65414806 82.10236359 61.43182945 C83.15046041 65.74649129 84.19974199 70.06086364 85.25 74.375 C85.47106415 73.51944519 85.6921283 72.66389038 85.91989136 71.78240967 C88.00447097 63.71803817 90.09336303 55.65479884 92.18710136 47.59280014 C93.26334759 43.44805854 94.33792404 39.30289899 95.40869141 35.15673828 C96.44218661 31.15515415 97.48005869 27.15472878 98.52096939 23.15506744 C98.91723704 21.62926904 99.31192848 20.10306039 99.70501328 18.5764389 C100.25603777 16.43754561 100.8126589 14.30018235 101.37060547 12.16308594 C101.68593231 10.9461908 102.00125916 9.72929565 102.32614136 8.4755249 C103.76394304 3.65017638 103.76394304 3.65017638 105.25 1.375 C108.62768474 0.24910509 111.25812072 0.24205725 114.8125 0.25 C115.96878906 0.24742188 117.12507813 0.24484375 118.31640625 0.2421875 C121.25 0.375 121.25 0.375 123.25 1.375 C122.76340528 7.28783209 121.78815657 12.69281531 119.98095703 18.33813477 C119.75154419 19.0776236 119.52213135 19.81711243 119.2857666 20.57901001 C118.53434654 22.99402448 117.77130012 25.40518247 117.0078125 27.81640625 C116.4776877 29.51053228 115.94822916 31.20486693 115.41940308 32.8993988 C114.31306673 36.43866868 113.20143592 39.97621254 112.08544922 43.51245117 C110.66047511 48.02792184 109.24462118 52.54618235 107.83221626 57.06559849 C106.47717751 61.40017292 105.11770221 65.73335175 103.7578125 70.06640625 C103.5015723 70.88406527 103.24533211 71.70172428 102.98132706 72.54416084 C102.24924702 74.8772968 101.51403744 77.20942271 100.77783203 79.54125977 C100.56577118 80.21836502 100.35371033 80.89547028 100.13522339 81.59309387 C96.04777182 94.49518163 96.04777182 94.49518163 93.46484375 97.34375 C90.4902311 98.72875483 88.08794111 98.8447069 84.8125 98.875 C83.70003906 98.9059375 82.58757812 98.936875 81.44140625 98.96875 C77.22716386 98.1847049 75.99207502 96.62444222 73.25 93.375 C72.04130554 90.26811218 72.04130554 90.26811218 71.21362305 86.7487793 C70.97844215 85.78208061 70.97844215 85.78208061 70.73851013 84.79585266 C70.22915875 82.68397157 69.74535901 80.56712154 69.26171875 78.44921875 C68.91170826 76.97625532 68.56010642 75.50366921 68.20698547 74.03144836 C67.28531248 70.17010997 66.38525059 66.30404899 65.48968506 62.43658447 C64.5706438 58.48522516 63.63113084 54.53874461 62.69335938 50.59179688 C60.85890268 42.85747788 59.04726159 35.1180463 57.25 27.375 C54.79913696 36.41926976 52.46034318 45.47301897 50.33984375 54.6015625 C49.82004557 56.80868425 49.29985231 59.01571298 48.77929688 61.22265625 C47.97672434 64.6340218 47.17682542 68.04593345 46.38354492 71.45947266 C45.60589976 74.80037873 44.81752054 78.13860147 44.02734375 81.4765625 C43.79289047 82.49738922 43.55843719 83.51821594 43.31687927 84.56997681 C41.11075081 93.81993699 41.11075081 93.81993699 38.25 97.375 C35.05843552 98.43885483 32.66502524 98.54177982 29.3125 98.5625 C27.75208984 98.58376953 27.75208984 98.58376953 26.16015625 98.60546875 C21.75619077 98.25669833 21.75619077 98.25669833 19.25 96.375 C18.02526121 93.56577487 17.07713512 90.92193653 16.1875 88.00390625 C15.89786377 87.09492081 15.60822754 86.18593536 15.30981445 85.24940491 C14.27113182 81.96351717 13.25985349 78.66986001 12.25 75.375 C11.8396308 74.04875353 11.42880566 72.72264806 11.01757812 71.39666748 C8.20227993 62.31114077 5.43612315 53.21137452 2.69482422 44.10327148 C1.47879014 40.06473275 0.25034263 36.03007409 -0.9806366 31.99606991 C-1.93442569 28.86259341 -2.87926387 25.72647074 -3.82162476 22.58954048 C-4.27120831 21.09858592 -4.72415275 19.60864037 -5.18057251 18.11976433 C-5.81219595 16.05644736 -6.4310537 13.98970996 -7.046875 11.92163086 C-7.40104492 10.75031113 -7.75521484 9.57899139 -8.12011719 8.37217712 C-8.72513787 5.49330169 -8.83820715 4.06456454 -7.75 1.375 C-5.82229125 -0.55270875 -2.56648514 0.06922055 0 0 Z " fill="#252F3E" transform="translate(146.75,103.625)"/>
<path d="M0 0 C4.65401212 1.75718431 8.85751128 3.98507034 13.1875 6.4375 C86.02222878 46.05301664 174.98905983 53.29624931 254.0625 30.125 C263.37926176 27.32779148 272.49602807 24.11156503 281.46899414 20.35009766 C288.89072965 17.32035528 288.89072965 17.32035528 293 19 C293.66 19.66 294.32 20.32 295 21 C294.97265625 23.85546875 294.97265625 23.85546875 294 27 C291.62109375 29.23828125 291.62109375 29.23828125 288.4375 31.3125 C287.85524658 31.69220947 287.27299316 32.07191895 286.6730957 32.46313477 C284.79720562 33.66830168 282.90230346 34.83704942 281 36 C280.40767578 36.3702832 279.81535156 36.74056641 279.20507812 37.12207031 C248.1863681 56.33464482 208.73146602 67.91343276 172.2265625 68.23828125 C171.31343796 68.24812042 170.40031342 68.25795959 169.45951843 68.26809692 C149.33308921 68.44019333 129.74059846 68.40754186 110 64 C108.93410645 63.76394043 107.86821289 63.52788086 106.77001953 63.28466797 C76.20408067 56.26441457 46.39146175 43.545325 21 25 C20.43104004 24.58508301 19.86208008 24.17016602 19.27587891 23.74267578 C13.41686227 19.42925878 7.73593268 14.89431649 2.1875 10.1875 C1.37667969 9.50042969 0.56585938 8.81335938 -0.26953125 8.10546875 C-2 6 -2 6 -2.26171875 3.23828125 C-2.17535156 2.49964844 -2.08898438 1.76101562 -2 1 C-1.34 0.67 -0.68 0.34 0 0 Z " fill="#FF9900" transform="translate(39,229)"/>
<path d="M0 0 C0.92490234 -0.01611328 1.84980469 -0.03222656 2.80273438 -0.04882812 C12.70031951 -0.05576406 21.59466971 2.02143146 28.875 9.06640625 C37.45317977 18.19859346 38.18711934 27.91666022 38.23828125 40.01171875 C38.26148564 42.12956716 38.28560323 44.24740573 38.31054688 46.36523438 C38.34556117 49.67837068 38.37496402 52.99114502 38.38842773 56.30444336 C38.40402348 59.51980664 38.44430709 62.73413386 38.48828125 65.94921875 C38.48637283 66.92356369 38.48446442 67.89790863 38.48249817 68.90177917 C38.60763218 76.0406075 40.34308065 81.74648395 43.0625 88.3125 C43.3925 89.3025 43.7225 90.2925 44.0625 91.3125 C41.22164037 95.9288969 37.88633105 98.11215601 33.0625 100.3125 C30.5 100.5625 30.5 100.5625 28.0625 99.3125 C26.35673483 97.3648726 24.86158678 95.35549952 23.39453125 93.22265625 C22.06730158 91.20027204 22.06730158 91.20027204 20.0625 89.3125 C19.61261719 89.75980469 19.16273437 90.20710938 18.69921875 90.66796875 C8.91785671 99.86127295 -1.26350501 102.6901166 -14.4375 102.51171875 C-23.1750785 102.0143789 -28.47170033 98.90490264 -34.76171875 92.8203125 C-40.73479601 85.93572434 -41.62229717 78.63696859 -41.3125 69.7109375 C-40.40205993 61.46007434 -37.30602283 55.69438254 -31.2265625 50.0703125 C-22.46248204 43.34021658 -14.51678912 42.13177487 -3.8125 42.125 C-2.81734375 42.11275391 -1.8221875 42.10050781 -0.796875 42.08789062 C5.72495539 42.07511942 11.72526612 42.76971134 18.0625 44.3125 C18.8109319 31.83054259 18.8109319 31.83054259 13.83203125 20.73046875 C9.09167051 16.93190154 3.35839398 16.92695524 -2.4375 16.9375 C-3.22125 16.93693604 -4.005 16.93637207 -4.8125 16.93579102 C-12.84889213 17.08500568 -20.69210055 18.68980027 -27.9375 22.3125 C-29.93710012 22.352492 -31.93797242 22.35596799 -33.9375 22.3125 C-35.68390716 18.81968568 -35.49333317 15.12392745 -34.9375 11.3125 C-30.33780078 4.41295117 -21.1755483 2.36864949 -13.43994141 0.71606445 C-8.96590914 -0.00545509 -4.52268539 -0.01569287 0 0 Z M-19.4375 62.875 C-22.04333153 68.84669725 -21.8661287 74.71233965 -19.6875 80.8125 C-17.54212387 83.87732304 -15.6731444 85.6306397 -12.1875 87 C-4.21705164 88.10700672 3.55770733 87.33093976 10.37109375 82.765625 C15.48719062 78.52255016 18.6404872 74.84052697 19.453125 68.046875 C19.7200321 64.80184656 19.92254529 61.56524045 20.0625 58.3125 C13.79652482 56.48248388 8.07646434 55.94684572 1.5625 55.9375 C0.66402344 55.91300781 -0.23445313 55.88851562 -1.16015625 55.86328125 C-8.63670913 55.83063255 -14.14624004 57.45145854 -19.4375 62.875 Z " fill="#252F3E" transform="translate(90.9375,101.6875)"/>
<path d="M0 0 C4.70860927 3.41721854 4.70860927 3.41721854 6 6 C6.35555556 13.46666667 6.35555556 13.46666667 4 17 C0.71999401 16.47096678 -2.30767651 15.58380712 -5.4375 14.5 C-15.01733717 11.28054653 -25.64211414 10.33292802 -35.21875 14.09765625 C-37.79922882 15.40487249 -38.90102149 16.28918635 -40 19 C-40.67323138 24.59982131 -40.67323138 24.59982131 -38.421875 29.5703125 C-35.51605474 32.48550637 -32.63124596 33.66458468 -28.8125 34.9375 C-28.11705078 35.18564453 -27.42160156 35.43378906 -26.70507812 35.68945312 C-22.97068807 37.01434396 -19.21188345 38.26208937 -15.44921875 39.50390625 C-5.19132946 42.92655274 3.54471433 45.92870337 9 56 C12.01202704 62.47585813 12.12966418 70.42350746 9.875 77.1875 C6.34815052 85.17189536 0.88909815 91.17942247 -7 95 C-14.04670791 97.69390275 -20.61212935 98.54842902 -28.125 98.5 C-29.12257324 98.49645508 -30.12014648 98.49291016 -31.14794922 98.48925781 C-41.07973375 98.26908331 -50.32687791 96.47240761 -58.91015625 91.21875 C-61 89 -61 89 -61.48828125 85.984375 C-61.43027344 84.91703125 -61.37226563 83.8496875 -61.3125 82.75 C-61.26738281 81.67234375 -61.22226562 80.5946875 -61.17578125 79.484375 C-61.11777344 78.66453125 -61.05976563 77.8446875 -61 77 C-56.93452994 75.85817746 -54.79238523 76.16705125 -50.9375 77.8125 C-38.93976005 82.47918485 -26.08745683 84.07297411 -14 79 C-10.97816533 77.07893873 -10.15913777 76.47741331 -9 73 C-8.49956172 68.92750943 -8.49956172 68.92750943 -9 65 C-12.49783081 60.92000094 -15.41752734 59.13275863 -20.515625 57.53515625 C-21.76730469 57.12716797 -23.01898438 56.71917969 -24.30859375 56.29882812 C-25.6218748 55.88506135 -26.93568189 55.47296067 -28.25 55.0625 C-40.50092481 51.22815936 -51.11654339 47.50353935 -58 36 C-61.1053805 29.64808534 -61.07932608 21.51562235 -58.9375 14.8125 C-54.68676886 5.27760308 -47.33912677 0.9459176 -38 -3 C-26.88264785 -6.70578405 -10.4460007 -5.16718202 0 0 Z " fill="#252F3E" transform="translate(338,106)"/>
<path d="M0 0 C2.42736086 2.42736086 2.30442274 3.82784138 2.38061523 7.15283203 C2.33308443 24.90455291 -3.66230335 41.19798834 -16.08203125 54.109375 C-16.71496094 54.73328125 -17.34789062 55.3571875 -18 56 C-18.66 56.66 -19.32 57.32 -20 58 C-22.625 57.625 -22.625 57.625 -25 57 C-23.00475888 49.87663915 -20.60216741 42.92542708 -18.06982422 35.97875977 C-16.01048556 30.26399641 -14.86370461 25.31251743 -14.9375 19.1875 C-14.94652344 18.21167969 -14.95554687 17.23585937 -14.96484375 16.23046875 C-14.97644531 15.49441406 -14.98804688 14.75835937 -15 14 C-20.52429564 11.67446456 -25.55536634 11.73177077 -31.4375 11.8125 C-32.88890381 11.82216797 -32.88890381 11.82216797 -34.36962891 11.83203125 C-42.27399594 11.91585552 -50.12550179 12.31312788 -58 13 C-58.33 11.35 -58.66 9.7 -59 8 C-42.51614885 -3.16287888 -19.01395215 -7.40185994 0 0 Z " fill="#FF9900" transform="translate(360,226)"/>
</svg>
