<?xml version="1.0" standalone="no"?>
<!DOCTYPE svg PUBLIC "-//W3C//DTD SVG 20010904//EN"
 "http://www.w3.org/TR/2001/REC-SVG-20010904/DTD/svg10.dtd">
<svg version="1.0" xmlns="http://www.w3.org/2000/svg"
 width="500.000000pt" height="500.000000pt" viewBox="0 0 500.000000 500.000000"
 preserveAspectRatio="xMidYMid meet">

<g transform="translate(0.000000,500.000000) scale(0.100000,-0.100000)"
fill="#000000" stroke="none">
<path d="M4173 4414 c-867 -768 -2277 -2157 -3283 -3234 -231 -247 -603 -658
-614 -678 -19 -34 542 479 999 913 474 450 1292 1261 1746 1730 459 475 1274
1355 1255 1355 -3 0 -50 -39 -103 -86z"/>
<path d="M1510 3865 c0 -11 11 -15 43 -15 101 0 186 -48 232 -132 l30 -53 3
-600 3 -599 299 299 300 300 0 276 c0 327 5 355 79 429 52 52 118 80 188 80
32 0 43 4 43 15 0 13 -74 15 -610 15 -536 0 -610 -2 -610 -15z"/>
<path d="M2117 1917 l-298 -292 1 -161 c0 -182 -10 -227 -65 -291 -40 -47
-110 -80 -189 -89 -37 -5 -56 -11 -56 -20 0 -12 170 -14 1045 -14 l1044 0 10
38 c6 20 42 179 81 352 39 173 77 341 85 373 12 52 12 57 -3 57 -12 0 -27 -27
-51 -91 -99 -265 -282 -449 -526 -530 -67 -22 -86 -23 -422 -27 l-353 -3 -2
495 -3 495 -298 -292z"/>
</g>
</svg>
